<svg width="32" height="32" viewBox="0 0 32 32" fill="none" xmlns="http://www.w3.org/2000/svg">
<path d="M5.33398 0H25.334C27.5393 0 29.334 1.79467 29.334 4V28C29.334 30.2053 27.5393 32 25.334 32H2.66732V2.66667C2.66732 1.196 3.86332 0 5.33398 0ZM5.33398 24H21.334V2.66667H16.0007V14.6667L12.6673 11.3333L9.33398 14.6667V2.66667H5.33398V24ZM25.334 2.66667H24.0007V24H25.334C25.802 24 26.25 24.0813 26.6673 24.2293V4C26.6673 3.26533 26.0687 2.66667 25.334 2.66667ZM25.334 29.3333C26.0687 29.3333 26.6673 28.7347 26.6673 28C26.6673 27.2653 26.0687 26.6667 25.334 26.6667H5.33398V29.3333H25.334Z" fill="white"/>
</svg>
