<svg width="20" height="20" viewBox="0 0 20 20" fill="none" xmlns="http://www.w3.org/2000/svg">
<path d="M20 10.0004C20 15.051 16.2562 19.2264 11.3926 19.904C10.9379 19.9671 10.4726 20 10.0004 20C9.45521 20 8.91988 19.9566 8.39856 19.8725C3.63662 19.1059 0 14.9774 0 10.0004C0 4.47746 4.47746 0 9.99965 0C15.5218 0 20 4.47746 20 10.0004Z" fill="#1877F2"/>
<path d="M11.3925 8.02962V10.2081H14.0874L13.6607 13.1426H11.3925V19.9036C10.9378 19.9667 10.4725 19.9996 10.0003 19.9996C9.45511 19.9996 8.91978 19.9562 8.39846 19.8721V13.1426H5.91309V10.2081H8.39846V7.54263C8.39846 5.88899 9.73889 4.54785 11.3932 4.54785V4.54925C11.3981 4.54925 11.4023 4.54785 11.4073 4.54785H14.0881V7.08578H12.3364C11.8158 7.08578 11.3932 7.5083 11.3932 8.02892L11.3925 8.02962Z" fill="white"/>
</svg>
