<svg width="20" height="24" viewBox="0 0 20 24" fill="none" xmlns="http://www.w3.org/2000/svg">
<path d="M20 12.012C20 16.7173 15.9583 20.5894 10.8333 20.9715V23.2507C10.8333 23.6643 10.46 24 10 24C9.54 24 9.16667 23.6643 9.16667 23.2507V20.9715C4.04167 20.5894 0 16.7173 0 12.012C0 11.5984 0.373333 11.2627 0.833333 11.2627C1.29333 11.2627 1.66667 11.5984 1.66667 12.012C1.66667 16.1434 5.405 19.5045 10 19.5045C14.595 19.5045 18.3333 16.1434 18.3333 12.012C18.3333 11.5984 18.7067 11.2627 19.1667 11.2627C19.6267 11.2627 20 11.5984 20 12.012ZM10.0083 16.4835C12.765 16.4835 15.0083 14.4665 15.0083 11.988V4.4955C15.0083 2.01698 12.765 0 10.0083 0C7.25167 0 5.00833 2.01698 5.00833 4.4955V11.988C5.00833 14.4665 7.25167 16.4835 10.0083 16.4835ZM6.675 4.4955C6.675 2.84266 8.17 1.4985 10.0083 1.4985C11.8467 1.4985 13.3417 2.84266 13.3417 4.4955V11.988C13.3417 13.6409 11.8467 14.985 10.0083 14.985C8.17 14.985 6.675 13.6409 6.675 11.988V4.4955Z" fill="#222222" fill-opacity="0.5"/>
</svg>
