<svg width="30" height="30" viewBox="0 0 30 30" fill="none" xmlns="http://www.w3.org/2000/svg">
<path d="M26.2501 26.875V30H23.7501V26.875C23.7501 25.1512 22.3488 23.75 20.6251 23.75H9.37508C7.65258 23.75 6.25008 25.1512 6.25008 26.875V30H3.75008V26.875C3.75008 23.7737 6.27383 21.25 9.37508 21.25H20.6251C23.7263 21.25 26.2501 23.7737 26.2501 26.875ZM16.0301 7.61873C17.5988 7.97998 18.8776 9.24873 19.2488 10.815C19.5001 11.8737 19.3626 12.8887 18.9513 13.75H20.5838C21.2101 13.75 21.7576 13.29 21.8301 12.6675C21.9151 11.9337 21.8838 11.165 21.7163 10.3787C21.1613 7.77998 19.0526 5.68373 16.4501 5.14873C12.0288 4.23998 8.12633 7.61123 8.12633 11.875C8.12633 13.7112 8.85008 15.3812 10.0263 16.615C10.0763 15.555 10.4588 14.5812 11.0713 13.795C10.7863 13.215 10.6263 12.5625 10.6263 11.8737C10.6263 9.12498 13.1738 6.95998 16.0313 7.61748L16.0301 7.61873ZM8.58883 5.03498C10.5001 3.24373 13.0026 2.35873 15.6263 2.52123C20.5313 2.83873 24.3751 7.10748 24.3751 12.2387C24.3751 14.4512 22.5763 16.25 20.3638 16.25H17.3676C17.0638 15.2112 16.1051 14.4512 14.9676 14.4512C13.5863 14.4512 12.4676 15.57 12.4676 16.9512C12.4676 18.3325 13.5863 19.4512 14.9676 19.4512C15.6413 19.4512 16.2538 19.1837 16.7026 18.75H20.3626C23.9526 18.75 26.8738 15.8287 26.8738 12.2387C26.8751 5.79248 22.0051 0.427479 15.7876 0.0262287C12.4576 -0.190021 9.29883 0.941229 6.88008 3.21123C4.64633 5.30498 3.30383 8.20623 3.14258 11.2512H5.64633C5.80008 8.87248 6.83133 6.68373 8.59008 5.03498H8.58883Z" fill="#222222" fill-opacity="0.5"/>
</svg>
